<svg width="10" height="13" xmlns="http://www.w3.org/2000/svg" fill="none">

 <g>
  <title>Facebook</title>
  <path id="facebook-svg" fill="#8B7EAC" d="m3.55668,3.1624c0,0.27457 0,1.50009 0,1.50009l-1.09903,0l0,1.83432l1.09903,0l0,5.45089l2.25764,0l0,-5.45074l1.51498,0c0,0 0.14189,-0.87954 0.21066,-1.84123c-0.19718,0 -1.7171,0 -1.7171,0c0,0 0,-1.06715 0,-1.2542c0,-0.18745 0.24615,-0.4396 0.48944,-0.4396c0.24283,0 0.75535,0 1.23004,0c0,-0.24975 0,-1.11267 0,-1.90963c-0.6337,0 -1.35465,0 -1.67244,0c-2.36903,-0.00013 -2.31322,1.83601 -2.31322,2.1101z"/>
 </g>
</svg>