<svg width="1179" height="915" viewBox="0 0 1179 915" fill="none" xmlns="http://www.w3.org/2000/svg">
<g filter="url(#filter0_f)">
<path d="M581.987 758.984C640.069 817.055 708.8 708.656 776.564 776.405C709.768 709.624 818.189 640.907 759.139 581.869C841.422 581.869 813.349 457.017 908.218 457.017C813.349 457.017 841.422 332.165 759.139 332.165C817.221 274.094 708.8 205.377 776.564 137.628C709.768 204.41 641.037 96.0111 581.987 155.05C581.987 72.7828 457.109 100.85 457.109 6.00159C457.109 100.85 332.231 72.7828 332.231 155.05V156.017C274.148 97.9468 205.417 206.345 137.654 138.596C204.449 205.377 96.0282 274.094 155.079 333.133C72.7951 333.133 100.868 457.985 6 457.985C100.868 457.985 72.7951 582.837 155.079 582.837C96.9962 640.907 205.417 709.624 137.654 777.373C204.449 710.592 273.18 818.99 332.231 759.952C332.231 842.219 457.109 814.151 457.109 909C457.109 814.151 581.987 842.219 581.987 758.984Z" stroke="#F0EBF9" stroke-width="5" stroke-miterlimit="10" stroke-linecap="round" stroke-linejoin="round"/>
<path d="M457.109 699.946C480.342 757.049 558.753 701.882 585.859 766.727C558.753 701.882 652.654 685.428 629.421 628.325C686.535 651.554 702.992 557.673 767.851 584.772C702.992 557.673 757.203 479.277 701.056 456.049C758.171 432.821 702.992 354.426 767.851 327.326C702.992 354.426 686.535 260.545 629.421 283.773C652.654 226.67 558.753 210.217 585.859 145.371C558.753 210.217 480.342 156.018 457.109 212.153C433.876 155.05 355.464 210.217 328.359 145.371C355.464 210.217 261.564 226.67 284.797 283.773C227.682 260.545 211.225 354.426 146.366 327.326C211.225 354.426 157.015 432.821 213.162 456.049C157.015 480.245 211.225 557.673 146.366 584.772C211.225 557.673 227.682 651.554 284.797 628.325C261.564 685.428 355.464 701.882 328.359 766.727C354.496 701.882 432.908 757.049 457.109 699.946Z" stroke="#F0EBF9" stroke-width="5" stroke-miterlimit="10" stroke-linecap="round" stroke-linejoin="round"/>
<path d="M525.84 623.486C557.785 655.425 595.539 596.387 633.293 633.165C596.507 596.387 656.526 558.641 623.612 525.734C669.11 525.734 653.622 457.017 705.896 457.017C653.622 457.017 669.11 388.3 623.612 388.3C655.558 356.361 596.507 318.616 633.293 280.87C596.507 317.648 558.753 257.641 525.84 290.548C525.84 245.059 457.109 260.545 457.109 208.281C457.109 260.545 388.378 245.059 388.378 290.548C356.432 258.609 318.678 317.648 280.925 280.87C317.71 317.648 257.692 355.394 290.605 388.3C245.107 388.3 260.596 457.017 208.321 457.017C260.596 457.017 245.107 525.734 290.605 525.734C258.66 557.673 317.71 595.419 280.925 633.165C317.71 596.387 355.464 656.393 388.378 623.486C388.378 668.975 457.109 653.49 457.109 705.753C457.109 653.49 525.84 668.975 525.84 623.486Z" stroke="#F0EBF9" stroke-width="5" stroke-miterlimit="10" stroke-linecap="round" stroke-linejoin="round"/>
<path d="M457.109 592.515C470.661 624.454 514.223 593.483 528.744 630.261C513.255 593.483 566.498 584.772 552.945 552.833C584.89 566.383 593.603 513.152 630.389 528.637C593.603 513.152 624.58 469.599 592.635 457.017C624.58 443.467 593.603 399.914 630.389 385.396C593.603 400.882 584.89 347.651 552.945 361.2C566.498 329.261 513.255 320.551 528.744 283.773C513.255 320.551 469.693 289.58 457.109 321.519C443.556 289.58 399.994 320.551 385.473 283.773C400.962 320.551 347.72 329.261 361.272 361.2C329.327 347.651 320.614 400.882 283.829 385.396C320.614 400.882 289.637 444.435 321.582 457.017C289.637 470.567 320.614 514.12 283.829 528.637C320.614 513.152 329.327 566.383 361.272 552.833C347.72 584.772 400.962 593.483 385.473 630.261C399.994 593.483 443.556 624.454 457.109 592.515Z" stroke="#F0EBF9" stroke-width="5" stroke-miterlimit="10" stroke-linecap="round" stroke-linejoin="round"/>
<path d="M496.799 551.866C515.191 570.255 537.456 536.38 557.785 557.673C536.488 536.38 570.37 515.088 551.977 496.699C578.114 496.699 569.402 457.017 599.411 457.017C569.402 457.017 578.114 417.335 551.977 417.335C570.37 398.946 536.488 376.686 557.785 356.361C536.488 377.654 515.191 343.779 496.799 362.168C496.799 336.037 457.109 344.747 457.109 314.744C457.109 344.747 417.419 336.037 417.419 362.168C399.026 343.779 376.761 377.654 356.432 356.361C377.729 377.654 343.848 398.946 362.24 417.335C336.103 417.335 344.816 457.017 314.806 457.017C344.816 457.017 336.103 496.699 362.24 496.699C343.848 515.088 377.729 537.348 356.432 557.673C377.729 536.38 399.026 570.255 417.419 551.866C417.419 577.997 457.109 569.287 457.109 599.29C457.109 569.287 496.799 577.997 496.799 551.866Z" stroke="#F0EBF9" stroke-width="5" stroke-miterlimit="10" stroke-linecap="round" stroke-linejoin="round"/>
<path d="M457.109 536.38C464.853 554.769 490.022 537.348 498.735 558.64C490.022 537.348 521 531.541 513.255 513.152C531.648 520.895 537.456 489.924 558.753 498.634C537.456 489.924 555.849 463.792 536.488 456.049C554.881 448.306 537.456 423.142 558.753 414.432C537.456 423.142 531.648 392.171 513.255 399.914C521 381.525 490.022 375.718 498.735 354.425C490.022 375.718 463.885 357.329 456.141 376.686C448.396 358.297 423.227 375.718 414.515 354.425C423.227 375.718 392.25 381.525 399.994 399.914C381.601 392.171 375.793 423.142 354.496 414.432C375.793 423.142 357.4 449.274 376.761 457.017C358.368 464.76 375.793 489.924 354.496 498.634C375.793 489.924 381.601 520.895 399.994 513.152C392.25 531.541 423.227 537.348 414.515 558.64C423.227 537.348 449.364 554.769 457.109 536.38Z" stroke="#F0EBF9" stroke-width="5" stroke-miterlimit="10" stroke-linecap="round" stroke-linejoin="round"/>
<path d="M480.342 514.12C490.99 524.766 504.543 504.441 517.127 517.023C504.543 504.441 524.872 490.891 514.223 480.245C529.712 480.245 524.872 456.049 542.296 456.049C523.904 456.049 529.712 431.853 514.223 431.853C524.872 421.207 504.543 407.657 517.127 395.075C504.543 407.657 490.99 387.332 480.342 397.978C480.342 382.493 456.14 387.332 456.14 369.911C456.14 388.3 431.939 382.493 431.939 397.978C421.291 387.332 407.738 407.657 395.154 395.075C407.738 407.657 387.409 421.207 398.058 431.853C382.569 431.853 387.409 456.049 369.985 456.049C388.377 456.049 382.569 480.245 398.058 480.245C387.409 490.891 407.738 504.441 395.154 517.023C407.738 504.441 421.291 524.766 431.939 514.12C431.939 529.605 456.14 524.766 456.14 542.187C457.109 524.766 480.342 529.605 480.342 514.12Z" stroke="#F0EBF9" stroke-width="5" stroke-miterlimit="10" stroke-linecap="round" stroke-linejoin="round"/>
<path d="M457.109 504.441C461.949 516.055 477.438 504.441 482.278 517.991C476.47 505.409 495.83 501.538 490.99 490.891C502.607 495.73 505.511 477.341 518.095 482.181C505.511 476.374 516.159 461.856 504.543 457.017C516.159 452.178 504.543 436.692 518.095 431.853C505.511 437.66 501.639 418.303 490.99 423.142C495.83 411.528 477.438 408.625 482.278 396.043C476.47 408.625 461.949 397.978 457.109 409.592C452.268 397.978 436.78 409.592 431.94 396.043C437.748 408.625 418.387 412.496 423.227 423.142C411.611 418.303 408.706 436.692 396.122 431.853C408.706 437.66 398.058 452.178 409.674 457.017C398.058 461.856 409.674 477.341 396.122 482.181C408.706 476.374 412.579 495.73 423.227 490.891C418.387 502.505 436.78 505.409 431.94 517.991C436.78 505.409 452.268 516.055 457.109 504.441Z" stroke="#F0EBF9" stroke-width="5" stroke-miterlimit="10" stroke-linecap="round" stroke-linejoin="round"/>
<path d="M457.109 498.634C480.633 498.634 499.703 479.568 499.703 456.049C499.703 432.53 480.633 413.464 457.109 413.464C433.585 413.464 414.515 432.53 414.515 456.049C414.515 479.568 433.585 498.634 457.109 498.634Z" stroke="#F0EBF9" stroke-width="5" stroke-miterlimit="10" stroke-linecap="round" stroke-linejoin="round"/>
</g>
<g filter="url(#filter1_f)">
<path d="M1035.75 331.209C1060.83 356.289 1090.52 309.473 1119.78 338.733C1090.94 309.891 1137.76 280.212 1112.26 254.714C1147.8 254.714 1135.67 200.791 1176.64 200.791C1135.67 200.791 1147.8 146.868 1112.26 146.868C1137.34 121.788 1090.52 92.1093 1119.78 62.8489C1090.94 91.6913 1061.25 44.8746 1035.75 70.373C1035.75 34.8424 981.813 46.9646 981.813 6C981.813 46.9646 927.879 34.8424 927.879 70.373V70.791C902.794 45.7106 873.109 92.5273 843.842 63.2669C872.691 92.1093 825.864 121.788 851.368 147.286C815.83 147.286 827.955 201.209 786.982 201.209C827.955 201.209 815.83 255.132 851.368 255.132C826.283 280.212 873.109 309.891 843.842 339.151C872.691 310.309 902.376 357.125 927.879 331.627C927.879 367.158 981.813 355.035 981.813 396C981.813 355.035 1035.75 367.158 1035.75 331.209Z" stroke="#F0EBF9" stroke-width="3" stroke-miterlimit="10" stroke-linecap="round" stroke-linejoin="round"/>
<path d="M981.813 305.711C991.847 330.373 1025.71 306.547 1037.42 334.553C1025.71 306.547 1066.27 299.441 1056.23 274.778C1080.9 284.81 1088.01 244.264 1116.02 255.968C1088.01 244.264 1111.42 210.405 1087.17 200.373C1111.84 190.341 1088.01 156.482 1116.02 144.778C1088.01 156.482 1080.9 115.936 1056.23 125.968C1066.27 101.306 1025.71 94.1994 1037.42 66.193C1025.71 94.1994 991.847 70.7911 981.813 95.0354C971.779 70.3731 937.913 94.1994 926.207 66.193C937.913 94.1994 897.358 101.306 907.393 125.968C882.725 115.936 875.618 156.482 847.605 144.778C875.618 156.482 852.204 190.341 876.454 200.373C852.204 210.823 875.618 244.264 847.605 255.968C875.618 244.264 882.725 284.81 907.393 274.778C897.358 299.441 937.913 306.547 926.207 334.553C937.495 306.547 971.361 330.373 981.813 305.711Z" stroke="#F0EBF9" stroke-width="3" stroke-miterlimit="10" stroke-linecap="round" stroke-linejoin="round"/>
<path d="M1011.5 272.688C1025.29 286.482 1041.6 260.984 1057.91 276.868C1042.02 260.984 1067.94 244.682 1053.73 230.47C1073.38 230.47 1066.69 200.791 1089.26 200.791C1066.69 200.791 1073.38 171.113 1053.73 171.113C1067.52 157.319 1042.02 141.016 1057.91 124.714C1042.02 140.598 1025.71 114.682 1011.5 128.894C1011.5 109.248 981.813 115.936 981.813 93.3635C981.813 115.936 952.129 109.248 952.129 128.894C938.331 115.1 922.026 140.598 905.72 124.714C921.608 140.598 895.686 156.901 909.901 171.113C890.251 171.113 896.94 200.791 874.363 200.791C896.94 200.791 890.251 230.47 909.901 230.47C896.104 244.264 921.608 260.566 905.72 276.868C921.608 260.984 937.913 286.901 952.129 272.688C952.129 292.335 981.813 285.646 981.813 308.219C981.813 285.646 1011.5 292.335 1011.5 272.688Z" stroke="#F0EBF9" stroke-width="3" stroke-miterlimit="10" stroke-linecap="round" stroke-linejoin="round"/>
<path d="M981.813 259.312C987.666 273.106 1006.48 259.73 1012.75 275.614C1006.06 259.73 1029.06 255.968 1023.2 242.174C1037 248.026 1040.76 225.035 1056.65 231.723C1040.76 225.035 1054.14 206.225 1040.35 200.791C1054.14 194.939 1040.76 176.129 1056.65 169.858C1040.76 176.547 1037 153.556 1023.2 159.408C1029.06 145.614 1006.06 141.852 1012.75 125.968C1006.06 141.852 987.248 128.476 981.813 142.27C975.96 128.476 957.146 141.852 950.874 125.968C957.564 141.852 934.569 145.614 940.422 159.408C926.625 153.556 922.862 176.547 906.974 169.858C922.862 176.547 909.483 195.357 923.28 200.791C909.483 206.643 922.862 225.453 906.974 231.723C922.862 225.035 926.625 248.026 940.422 242.174C934.569 255.968 957.564 259.73 950.874 275.614C957.146 259.73 975.96 273.106 981.813 259.312Z" stroke="#F0EBF9" stroke-width="3" stroke-miterlimit="10" stroke-linecap="round" stroke-linejoin="round"/>
<path d="M998.955 241.756C1006.9 249.698 1016.51 235.068 1025.29 244.264C1016.1 235.068 1030.73 225.871 1022.79 217.929C1034.07 217.929 1030.31 200.791 1043.27 200.791C1030.31 200.791 1034.07 183.653 1022.79 183.653C1030.73 175.711 1016.1 166.097 1025.29 157.318C1016.1 166.515 1006.9 151.884 998.955 159.826C998.955 148.54 981.813 152.302 981.813 139.344C981.813 152.302 964.671 148.54 964.671 159.826C956.728 151.884 947.111 166.515 938.331 157.318C947.53 166.515 932.896 175.711 940.84 183.653C929.552 183.653 933.314 200.791 920.353 200.791C933.314 200.791 929.552 217.929 940.84 217.929C932.896 225.871 947.53 235.486 938.331 244.264C947.53 235.068 956.728 249.698 964.671 241.756C964.671 253.042 981.813 249.28 981.813 262.238C981.813 249.28 998.955 253.042 998.955 241.756Z" stroke="#F0EBF9" stroke-width="3" stroke-miterlimit="10" stroke-linecap="round" stroke-linejoin="round"/>
<path d="M981.813 235.067C985.158 243.01 996.028 235.485 999.791 244.682C996.028 235.485 1009.41 232.977 1006.06 225.035C1014.01 228.379 1016.51 215.003 1025.71 218.765C1016.51 215.003 1024.46 203.717 1016.1 200.373C1024.04 197.029 1016.51 186.161 1025.71 182.399C1016.51 186.161 1014.01 172.785 1006.06 176.129C1009.41 168.186 996.028 165.678 999.791 156.482C996.028 165.678 984.74 157.736 981.395 166.096C978.05 158.154 967.18 165.678 963.417 156.482C967.18 165.678 953.801 168.186 957.146 176.129C949.202 172.785 946.693 186.161 937.495 182.399C946.693 186.161 938.75 197.447 947.111 200.791C939.168 204.135 946.693 215.003 937.495 218.765C946.693 215.003 949.202 228.379 957.146 225.035C953.801 232.977 967.18 235.485 963.417 244.682C967.18 235.485 978.468 243.01 981.813 235.067Z" stroke="#F0EBF9" stroke-width="3" stroke-miterlimit="10" stroke-linecap="round" stroke-linejoin="round"/>
<path d="M991.847 225.453C996.446 230.051 1002.3 221.273 1007.73 226.707C1002.3 221.273 1011.08 215.421 1006.48 210.823C1013.17 210.823 1011.08 200.373 1018.61 200.373C1010.66 200.373 1013.17 189.923 1006.48 189.923C1011.08 185.325 1002.3 179.473 1007.73 174.039C1002.3 179.473 996.446 170.695 991.847 175.293C991.847 168.605 981.395 170.695 981.395 163.17C981.395 171.113 970.943 168.605 970.943 175.293C966.344 170.695 960.49 179.473 955.055 174.039C960.49 179.473 951.71 185.325 956.309 189.923C949.62 189.923 951.71 200.373 944.185 200.373C952.128 200.373 949.62 210.823 956.309 210.823C951.71 215.421 960.49 221.273 955.055 226.707C960.49 221.273 966.344 230.051 970.943 225.453C970.943 232.141 981.395 230.051 981.395 237.576C981.813 230.051 991.847 232.141 991.847 225.453Z" stroke="#F0EBF9" stroke-width="3" stroke-miterlimit="10" stroke-linecap="round" stroke-linejoin="round"/>
<path d="M981.813 221.273C983.904 226.289 990.593 221.273 992.684 227.125C990.175 221.691 998.537 220.019 996.446 215.421C1001.46 217.511 1002.72 209.569 1008.15 211.659C1002.72 209.151 1007.32 202.881 1002.3 200.791C1007.32 198.701 1002.3 192.013 1008.15 189.923C1002.72 192.431 1001.05 184.071 996.446 186.161C998.537 181.145 990.593 179.891 992.684 174.457C990.175 179.891 983.904 175.293 981.813 180.309C979.723 175.293 973.033 180.309 970.943 174.457C973.451 179.891 965.089 181.563 967.18 186.161C962.163 184.071 960.908 192.013 955.473 189.923C960.908 192.431 956.309 198.701 961.327 200.791C956.309 202.881 961.327 209.569 955.473 211.659C960.908 209.151 962.581 217.511 967.18 215.421C965.089 220.437 973.033 221.691 970.943 227.125C973.033 221.691 979.723 226.289 981.813 221.273Z" stroke="#F0EBF9" stroke-width="3" stroke-miterlimit="10" stroke-linecap="round" stroke-linejoin="round"/>
<path d="M981.813 218.765C991.973 218.765 1000.21 210.531 1000.21 200.373C1000.21 190.215 991.973 181.981 981.813 181.981C971.653 181.981 963.417 190.215 963.417 200.373C963.417 210.531 971.653 218.765 981.813 218.765Z" stroke="#F0EBF9" stroke-width="3" stroke-miterlimit="10" stroke-linecap="round" stroke-linejoin="round"/>
</g>
<g filter="url(#filter2_f)">
<path d="M1035.77 844.209C1060.85 869.289 1090.54 822.473 1119.8 851.733C1090.95 822.891 1137.78 793.212 1112.28 767.714C1147.81 767.714 1135.69 713.791 1176.66 713.791C1135.69 713.791 1147.81 659.868 1112.28 659.868C1137.36 634.788 1090.54 605.109 1119.8 575.849C1090.95 604.691 1061.27 557.875 1035.77 583.373C1035.77 547.842 981.831 559.965 981.831 519C981.831 559.965 927.897 547.842 927.897 583.373V583.791C902.812 558.711 873.127 605.527 843.861 576.267C872.709 605.109 825.883 634.788 851.386 660.286C815.848 660.286 827.973 714.209 787 714.209C827.973 714.209 815.848 768.132 851.386 768.132C826.301 793.212 873.127 822.891 843.861 852.151C872.709 823.309 902.394 870.125 927.897 844.627C927.897 880.158 981.831 868.035 981.831 909C981.831 868.035 1035.77 880.158 1035.77 844.209Z" stroke="#F0EBF9" stroke-width="3" stroke-miterlimit="10" stroke-linecap="round" stroke-linejoin="round"/>
<path d="M981.831 818.711C991.866 843.373 1025.73 819.547 1037.44 847.553C1025.73 819.547 1066.29 812.441 1056.25 787.778C1080.92 797.81 1088.03 757.264 1116.04 768.968C1088.03 757.264 1111.44 723.405 1087.19 713.373C1111.86 703.341 1088.03 669.482 1116.04 657.778C1088.03 669.482 1080.92 628.936 1056.25 638.968C1066.29 614.306 1025.73 607.199 1037.44 579.193C1025.73 607.199 991.866 583.791 981.831 608.035C971.797 583.373 937.932 607.199 926.225 579.193C937.932 607.199 897.377 614.306 907.411 638.968C882.743 628.936 875.636 669.482 847.623 657.778C875.636 669.482 852.222 703.341 876.472 713.373C852.222 723.823 875.636 757.264 847.623 768.968C875.636 757.264 882.743 797.81 907.411 787.778C897.377 812.441 937.932 819.547 926.225 847.553C937.513 819.547 971.379 843.373 981.831 818.711Z" stroke="#F0EBF9" stroke-width="3" stroke-miterlimit="10" stroke-linecap="round" stroke-linejoin="round"/>
<path d="M1011.52 785.688C1025.31 799.482 1041.62 773.984 1057.92 789.868C1042.04 773.984 1067.96 757.682 1053.74 743.47C1073.39 743.47 1066.7 713.791 1089.28 713.791C1066.7 713.791 1073.39 684.113 1053.74 684.113C1067.54 670.319 1042.04 654.016 1057.92 637.714C1042.04 653.598 1025.73 627.682 1011.52 641.894C1011.52 622.248 981.831 628.936 981.831 606.364C981.831 628.936 952.147 622.248 952.147 641.894C938.35 628.1 922.044 653.598 905.738 637.714C921.626 653.598 895.704 669.901 909.919 684.113C890.269 684.113 896.958 713.791 874.381 713.791C896.958 713.791 890.269 743.47 909.919 743.47C896.122 757.264 921.626 773.566 905.738 789.868C921.626 773.984 937.932 799.901 952.147 785.688C952.147 805.335 981.831 798.646 981.831 821.219C981.831 798.646 1011.52 805.335 1011.52 785.688Z" stroke="#F0EBF9" stroke-width="3" stroke-miterlimit="10" stroke-linecap="round" stroke-linejoin="round"/>
<path d="M981.831 772.312C987.685 786.106 1006.5 772.73 1012.77 788.614C1006.08 772.73 1029.08 768.968 1023.22 755.174C1037.02 761.026 1040.78 738.035 1056.67 744.723C1040.78 738.035 1054.16 719.225 1040.36 713.791C1054.16 707.939 1040.78 689.129 1056.67 682.858C1040.78 689.547 1037.02 666.556 1023.22 672.408C1029.08 658.614 1006.08 654.852 1012.77 638.968C1006.08 654.852 987.266 641.476 981.831 655.27C975.978 641.476 957.164 654.852 950.892 638.968C957.582 654.852 934.587 658.614 940.44 672.408C926.643 666.556 922.88 689.547 906.993 682.858C922.88 689.547 909.501 708.357 923.298 713.791C909.501 719.643 922.88 738.453 906.993 744.723C922.88 738.035 926.643 761.026 940.44 755.174C934.587 768.968 957.582 772.73 950.892 788.614C957.164 772.73 975.978 786.106 981.831 772.312Z" stroke="#F0EBF9" stroke-width="3" stroke-miterlimit="10" stroke-linecap="round" stroke-linejoin="round"/>
<path d="M998.973 754.756C1006.92 762.698 1016.53 748.068 1025.31 757.264C1016.11 748.068 1030.75 738.871 1022.8 730.929C1034.09 730.929 1030.33 713.791 1043.29 713.791C1030.33 713.791 1034.09 696.653 1022.8 696.653C1030.75 688.711 1016.11 679.097 1025.31 670.318C1016.11 679.515 1006.92 664.884 998.973 672.826C998.973 661.54 981.831 665.302 981.831 652.344C981.831 665.302 964.69 661.54 964.69 672.826C956.746 664.884 947.13 679.515 938.35 670.318C947.548 679.515 932.914 688.711 940.858 696.653C929.57 696.653 933.333 713.791 920.372 713.791C933.333 713.791 929.57 730.929 940.858 730.929C932.914 738.871 947.548 748.486 938.35 757.264C947.548 748.068 956.746 762.698 964.69 754.756C964.69 766.042 981.831 762.28 981.831 775.238C981.831 762.28 998.973 766.042 998.973 754.756Z" stroke="#F0EBF9" stroke-width="3" stroke-miterlimit="10" stroke-linecap="round" stroke-linejoin="round"/>
<path d="M981.831 748.067C985.176 756.01 996.047 748.485 999.809 757.682C996.047 748.485 1009.43 745.977 1006.08 738.035C1014.02 741.379 1016.53 728.003 1025.73 731.765C1016.53 728.003 1024.48 716.717 1016.12 713.373C1024.06 710.029 1016.53 699.161 1025.73 695.399C1016.53 699.161 1014.02 685.785 1006.08 689.129C1009.43 681.186 996.047 678.678 999.809 669.482C996.047 678.678 984.758 670.736 981.413 679.096C978.069 671.154 967.198 678.678 963.435 669.482C967.198 678.678 953.819 681.186 957.164 689.129C949.22 685.785 946.712 699.161 937.514 695.399C946.712 699.161 938.768 710.447 947.13 713.791C939.186 717.135 946.712 728.003 937.514 731.765C946.712 728.003 949.22 741.379 957.164 738.035C953.819 745.977 967.198 748.485 963.435 757.682C967.198 748.485 978.487 756.01 981.831 748.067Z" stroke="#F0EBF9" stroke-width="3" stroke-miterlimit="10" stroke-linecap="round" stroke-linejoin="round"/>
<path d="M991.865 738.453C996.465 743.051 1002.32 734.273 1007.75 739.707C1002.32 734.273 1011.1 728.421 1006.5 723.823C1013.19 723.823 1011.1 713.373 1018.62 713.373C1010.68 713.373 1013.19 702.923 1006.5 702.923C1011.1 698.325 1002.32 692.473 1007.75 687.039C1002.32 692.473 996.465 683.695 991.865 688.293C991.865 681.605 981.413 683.695 981.413 676.17C981.413 684.113 970.961 681.605 970.961 688.293C966.362 683.695 960.509 692.473 955.073 687.039C960.509 692.473 951.729 698.325 956.328 702.923C949.638 702.923 951.729 713.373 944.203 713.373C952.147 713.373 949.638 723.823 956.328 723.823C951.729 728.421 960.509 734.273 955.073 739.707C960.509 734.273 966.362 743.051 970.961 738.453C970.961 745.141 981.413 743.051 981.413 750.576C981.831 743.051 991.865 745.141 991.865 738.453Z" stroke="#F0EBF9" stroke-width="3" stroke-miterlimit="10" stroke-linecap="round" stroke-linejoin="round"/>
<path d="M981.831 734.273C983.922 739.289 990.611 734.273 992.702 740.125C990.193 734.691 998.555 733.019 996.465 728.421C1001.48 730.511 1002.74 722.569 1008.17 724.659C1002.74 722.151 1007.34 715.881 1002.32 713.791C1007.34 711.701 1002.32 705.013 1008.17 702.923C1002.74 705.431 1001.06 697.071 996.465 699.161C998.555 694.145 990.611 692.891 992.702 687.457C990.193 692.891 983.922 688.293 981.831 693.309C979.741 688.293 973.051 693.309 970.961 687.457C973.469 692.891 965.108 694.563 967.198 699.161C962.181 697.071 960.927 705.013 955.491 702.923C960.927 705.431 956.328 711.701 961.345 713.791C956.328 715.881 961.345 722.569 955.491 724.659C960.927 722.151 962.599 730.511 967.198 728.421C965.108 733.437 973.051 734.691 970.961 740.125C973.051 734.691 979.741 739.289 981.831 734.273Z" stroke="#F0EBF9" stroke-width="3" stroke-miterlimit="10" stroke-linecap="round" stroke-linejoin="round"/>
<path d="M981.831 731.765C991.991 731.765 1000.23 723.531 1000.23 713.373C1000.23 703.215 991.991 694.981 981.831 694.981C971.671 694.981 963.435 703.215 963.435 713.373C963.435 723.531 971.671 731.765 981.831 731.765Z" stroke="#F0EBF9" stroke-width="3" stroke-miterlimit="10" stroke-linecap="round" stroke-linejoin="round"/>
</g>
<defs>
<filter id="filter0_f" x="0.5" y="0.501587" width="913.218" height="913.998" filterUnits="userSpaceOnUse" color-interpolation-filters="sRGB">
<feFlood flood-opacity="0" result="BackgroundImageFix"/>
<feBlend mode="normal" in="SourceGraphic" in2="BackgroundImageFix" result="shape"/>
<feGaussianBlur stdDeviation="1.5" result="effect1_foregroundBlur"/>
</filter>
<filter id="filter1_f" x="782.482" y="1.5" width="398.663" height="399" filterUnits="userSpaceOnUse" color-interpolation-filters="sRGB">
<feFlood flood-opacity="0" result="BackgroundImageFix"/>
<feBlend mode="normal" in="SourceGraphic" in2="BackgroundImageFix" result="shape"/>
<feGaussianBlur stdDeviation="1.5" result="effect1_foregroundBlur"/>
</filter>
<filter id="filter2_f" x="782.5" y="514.5" width="398.663" height="399" filterUnits="userSpaceOnUse" color-interpolation-filters="sRGB">
<feFlood flood-opacity="0" result="BackgroundImageFix"/>
<feBlend mode="normal" in="SourceGraphic" in2="BackgroundImageFix" result="shape"/>
<feGaussianBlur stdDeviation="1.5" result="effect1_foregroundBlur"/>
</filter>
</defs>
</svg>
