<svg width="18" height="13" xmlns="http://www.w3.org/2000/svg" fill="none">

 <g>
  <title>Twitter</title>
  <path id="twitter-svg" fill="#8B7EAC" d="m14.86834,6.11258c0.8472,-0.06989 1.4219,-0.45505 1.6431,-0.97764c-0.3056,0.18773 -1.2543,0.39241 -1.7783,0.19748c-0.0256,-0.1231 -0.0543,-0.24002 -0.0825,-0.34559c-0.3992,-1.46591 -1.7661,-2.6469 -3.19832,-2.50423c0.11592,-0.04678 0.23342,-0.09034 0.35062,-0.12945c0.1576,-0.05646 1.0826,-0.20695 0.9369,-0.53343c-0.1228,-0.28716 -1.25284,0.21702 -1.46562,0.28292c0.28092,-0.10564 0.74542,-0.28734 0.79522,-0.6101c-0.4304,0.05902 -0.8528,0.26247 -1.17922,0.5583c0.11784,-0.12685 0.20724,-0.28145 0.22622,-0.44783c-1.14776,0.73324 -1.81823,2.21149 -2.36082,3.64545c-0.42605,-0.41289 -0.80367,-0.73804 -1.14243,-0.91858c-0.95034,-0.50962 -2.08663,-1.04134 -3.87034,-1.70349c-0.05475,0.59015 0.29187,1.37483 1.29064,1.89666c-0.21639,-0.02897 -0.61211,0.03567 -0.9286,0.11146c0.12889,0.67606 0.54982,1.23307 1.68937,1.50241c-0.52078,0.03437 -0.78992,0.15288 -1.03384,0.4083c0.23719,0.4702 0.81598,1.02359 1.85715,0.91c-1.15757,0.49892 -0.47199,1.42287 0.46993,1.28508c-1.60685,1.65968 -4.14022,1.5377 -5.59496,0.14954c3.79823,5.1755 12.0547,3.0608 13.2851,-1.92422c0.9219,0.00786 1.4638,-0.31932 1.7999,-0.68003c-0.5312,0.09013 -1.301,-0.00302 -1.7092,-0.17301z"/>
 </g>
</svg>