<svg width="18" height="13" xmlns="http://www.w3.org/2000/svg" fill="none">

 <g>
  <title>Layer 1</title>
  <path id="svg_1" fill="#8B7EAC" d="m15.38411,9.6355c-0.0349,-0.0631 -0.2511,-0.56965 -1.2911,-1.61078c-1.0889,-1.0902 -0.9426,-0.91318 0.3689,-2.79825c0.7987,-1.14805 1.1181,-1.84915 1.0181,-2.14887c-0.0951,-0.28569 -0.6825,-0.21033 -0.6825,-0.21033l-1.9534,0.01227c0,0 -0.1447,-0.02103 -0.2527,0.0482c-0.10486,0.06836 -0.1723,0.22611 -0.1723,0.22611c0,0 -0.30958,0.88864 -0.72236,1.64407c-0.87026,1.59412 -1.21885,1.67825 -1.36104,1.57922c-0.33072,-0.23048 -0.24783,-0.9272 -0.24783,-1.42147c0,-1.54504 0.21695,-2.18918 -0.42335,-2.35569c-0.21289,-0.05521 -0.3689,-0.09202 -0.9125,-0.09815c-0.69718,-0.00789 -1.28791,0.00263 -1.62187,0.17878c-0.22264,0.11743 -0.39409,0.37947 -0.28927,0.39437c0.12919,0.0184 0.42172,0.085 0.57691,0.31286c0.20071,0.29358 0.19339,0.95437 0.19339,0.95437c0,0 0.11539,1.81847 -0.26895,2.04457c-0.26409,0.15512 -0.62568,-0.16125 -1.40167,-1.60814c-0.39734,-0.74053 -0.69799,-1.55994 -0.69799,-1.55994c0,0 -0.05769,-0.15249 -0.16089,-0.23399c-0.12513,-0.09903 -0.30064,-0.13058 -0.30064,-0.13058l-1.85751,0.01227c0,0 -0.27871,0.00876 -0.3811,0.13934c-0.091,0.11656 -0.00731,0.35668 -0.00731,0.35668c0,0 1.45448,3.66937 3.10073,5.5194c1.51055,1.69578 3.22505,1.58448 3.22505,1.58448l0.77681,0c0,0 0.23483,-0.02805 0.35427,-0.16739c0.11051,-0.12795 0.10645,-0.36808 0.10645,-0.36808c0,0 -0.01544,-1.12438 0.46885,-1.29002c0.47697,-0.163 1.08964,1.08671 1.73888,1.56783c0.49074,0.3637 0.86374,0.28395 0.86374,0.28395l1.7364,-0.02629c0,0 0.9085,-0.06047 0.4778,-0.8308z"/>
 </g>
</svg>